# xmcd
#
# Track frame offsets: 
#        150
#        13691
#        23639
#        37057
#        47342
#        60290
#        70683
#        86650
#        99159
#        112172
#        123692
#        136299
#        150368
#        160193
#        172379
#        183399
#
# Disc length: 2597 seconds
#
# Revision: 0
# Processed by: cddbd v1.5.2PL0 Copyright (c) Steve Scherf et al.
# Submitted via: ExactAudioCopy v1.3
#
DISCID=cc0a2310
DTITLE=Magic Sam - West Side Soul - Charly Blues Masterworks - Vol.29
DYEAR=1992
DGENRE=Chicago Blues
TTITLE0=All Your Love
TTITLE1=Love Me With A Feeling
TTITLE2=Everything Gonna Be Alright
TTITLE3=Look Watcha Done
TTITLE4=All Night Long
TTITLE5=All My Whole Life
TTITLE6=Easy Baby
TTITLE7=21 Days In Jail
TTITLE8=Love Me This Way
TTITLE9=Magic Rocker
TTITLE10=Roll Your Moneymaker
TTITLE11=Call Me If You Need Me
TTITLE12=Every Night About This Time
TTITLE13=Blue Light Boogie
TTITLE14=Out Of Bad Luck
TTITLE15=She Belongs To Me
EXTD=
EXTT0=
EXTT1=
EXTT2=
EXTT3=
EXTT4=
EXTT5=
EXTT6=
EXTT7=
EXTT8=
EXTT9=
EXTT10=
EXTT11=
EXTT12=
EXTT13=
EXTT14=
EXTT15=
PLAYORDER=
